<svg id="visual" viewBox="0 0 900 600" width="900" height="600" xmlns="http://www.w3.org/2000/svg" xmlns:xlink="http://www.w3.org/1999/xlink" version="1.1"><rect x="0" y="0" width="900" height="600" fill="#001220"></rect><path d="M0 388L21.5 393.7C43 399.3 86 410.7 128.8 418.8C171.7 427 214.3 432 257.2 428.8C300 425.7 343 414.3 385.8 402.3C428.7 390.3 471.3 377.7 514.2 383.3C557 389 600 413 642.8 414.3C685.7 415.7 728.3 394.3 771.2 394.2C814 394 857 415 878.5 425.5L900 436L900 601L878.5 601C857 601 814 601 771.2 601C728.3 601 685.7 601 642.8 601C600 601 557 601 514.2 601C471.3 601 428.7 601 385.8 601C343 601 300 601 257.2 601C214.3 601 171.7 601 128.8 601C86 601 43 601 21.5 601L0 601Z" fill="#fa7268"></path><path d="M0 407L21.5 410.8C43 414.7 86 422.3 128.8 431.7C171.7 441 214.3 452 257.2 449.5C300 447 343 431 385.8 423C428.7 415 471.3 415 514.2 425.5C557 436 600 457 642.8 453.8C685.7 450.7 728.3 423.3 771.2 409.2C814 395 857 394 878.5 393.5L900 393L900 601L878.5 601C857 601 814 601 771.2 601C728.3 601 685.7 601 642.8 601C600 601 557 601 514.2 601C471.3 601 428.7 601 385.8 601C343 601 300 601 257.2 601C214.3 601 171.7 601 128.8 601C86 601 43 601 21.5 601L0 601Z" fill="#ef5f67"></path><path d="M0 468L21.5 469.2C43 470.3 86 472.7 128.8 479.5C171.7 486.3 214.3 497.7 257.2 501C300 504.3 343 499.7 385.8 488.7C428.7 477.7 471.3 460.3 514.2 460.2C557 460 600 477 642.8 480.5C685.7 484 728.3 474 771.2 474.5C814 475 857 486 878.5 491.5L900 497L900 601L878.5 601C857 601 814 601 771.2 601C728.3 601 685.7 601 642.8 601C600 601 557 601 514.2 601C471.3 601 428.7 601 385.8 601C343 601 300 601 257.2 601C214.3 601 171.7 601 128.8 601C86 601 43 601 21.5 601L0 601Z" fill="#e34c67"></path><path d="M0 518L21.5 513.8C43 509.7 86 501.3 128.8 496.3C171.7 491.3 214.3 489.7 257.2 492.2C300 494.7 343 501.3 385.8 502.3C428.7 503.3 471.3 498.7 514.2 501.8C557 505 600 516 642.8 514.8C685.7 513.7 728.3 500.3 771.2 497.5C814 494.7 857 502.3 878.5 506.2L900 510L900 601L878.5 601C857 601 814 601 771.2 601C728.3 601 685.7 601 642.8 601C600 601 557 601 514.2 601C471.3 601 428.7 601 385.8 601C343 601 300 601 257.2 601C214.3 601 171.7 601 128.8 601C86 601 43 601 21.5 601L0 601Z" fill="#d53867"></path><path d="M0 541L21.5 544C43 547 86 553 128.8 555.2C171.7 557.3 214.3 555.7 257.2 554.2C300 552.7 343 551.3 385.8 548.7C428.7 546 471.3 542 514.2 538.5C557 535 600 532 642.8 534.2C685.7 536.3 728.3 543.7 771.2 544.7C814 545.7 857 540.3 878.5 537.7L900 535L900 601L878.5 601C857 601 814 601 771.2 601C728.3 601 685.7 601 642.8 601C600 601 557 601 514.2 601C471.3 601 428.7 601 385.8 601C343 601 300 601 257.2 601C214.3 601 171.7 601 128.8 601C86 601 43 601 21.5 601L0 601Z" fill="#c62368"></path></svg>